<svg xmlns="http://www.w3.org/2000/svg" viewBox="0 0 192 192"><rect width="192" height="192" rx="38" fill="#294c3c"/><path d="M41 80L32 25Q62 31 76 65M105 63Q127 24 143 24L149 86" fill="#ce8651" stroke="#152f2c" stroke-width="6" stroke-linejoin="round"/><path d="M49 65L42 38L66 62M118 61L135 37L135 68" fill="#705440"/><path d="M42 74Q88 48 140 79L157 105L145 109L151 121Q106 159 64 142L39 122L45 115L28 105Z" fill="#d49056" stroke="#152f2c" stroke-width="6" stroke-linejoin="round"/><path d="M42 106Q67 116 85 111L97 121L107 110Q128 115 146 103Q136 143 99 145Q57 144 42 106" fill="#f0dcad"/><path d="M89 121Q98 116 106 122L97 130Z" fill="#223c31"/><path d="M51 142Q98 161 139 144L140 159Q95 182 46 157Z" fill="#bdc68c" stroke="#203d2d" stroke-width="4"/><ellipse cx="69" cy="103" rx="6" ry="8" fill="#263d2f"/><ellipse cx="123" cy="101" rx="6" ry="8" fill="#263d2f"/><path d="M57 88L78 89M113 86L133 88" fill="none" stroke="#6f573b" stroke-width="3" stroke-linecap="round"/><path d="M153 130L174 130L176 161L153 161Z" fill="#f2d184" stroke="#957341" stroke-width="4"/><path d="M157 129Q151 114 167 115Q177 117 172 129" fill="none" stroke="#c3a268" stroke-width="4"/></svg>
